<?xml version="1.0" encoding="UTF-8"?>
<svg width="40px" height="12px" viewBox="0 0 40 12" version="1.1" xmlns="http://www.w3.org/2000/svg" xmlns:xlink="http://www.w3.org/1999/xlink">
    <title>Fill-1</title>
    <g id="Page-1" stroke="none" stroke-width="1" fill="none" fill-rule="evenodd">
        <g id="jpg" transform="translate(0.000000, -0.000023)" fill="#F7F6F6" fill-rule="nonzero">
            <path d="M6.094069,5.63392268 C5.98265,5.65492268 5.720153,5.69382268 5.579463,5.66552268 C5.451048,5.63812268 5.291472,5.65812268 5.149838,5.63392268 C5.101682,5.63502268 5.053526,5.63602268 5.00537,5.63812268 C4.855238,5.60872268 4.68622,5.61612268 4.54553,5.64132268 C4.505872,5.63922268 4.464326,5.63602268 4.424668,5.63392268 C4.275479,5.66232268 4.046976,5.65812268 3.907229,5.69282268 C3.848687,5.68862268 3.7892,5.68652268 3.729714,5.68332268 C3.661729,5.69592268 3.584302,5.68652268 3.526704,5.71172268 C3.472883,5.73482268 3.42095,5.78112268 3.374683,5.81262268 C3.346356,5.83052268 3.317085,5.83472268 3.299144,5.86312268 C3.274594,5.90192268 3.29159,5.97662268 3.274594,6.01972268 C3.245323,6.09952268 3.215108,6.21312268 3.2,6.30562268 C3.203777,6.40542268 3.207554,6.50632268 3.212275,6.60512268 C3.211331,6.64292268 3.209442,6.67972268 3.207554,6.71552268 C3.222662,6.78272268 3.275539,6.81532268 3.294423,6.87102268 C3.318973,6.94672268 3.309531,6.99292268 3.352965,7.03922268 C3.422839,7.11282268 3.523871,7.08752268 3.618294,7.12122268 C3.669283,7.14012268 3.775037,7.18632268 3.837356,7.17582268 C3.901564,7.17062268 3.963883,7.16852268 4.027147,7.16322268 C4.067749,7.17482268 4.107406,7.18742268 4.148008,7.20002268 C4.215993,7.18842268 4.283033,7.17792268 4.351018,7.16852268 C4.464326,7.15172268 4.558749,7.17062268 4.670168,7.14952268 C4.720212,7.15172268 4.771201,7.15482268 4.823134,7.15802268 C4.940218,7.14952268 5.045028,7.17062268 5.158336,7.14952268 C5.417055,7.10122268 5.749425,7.20322268 5.94488,7.04232268 C6.100679,6.91522268 5.994925,6.52522268 6.072352,6.33292268 C6.116731,6.22462268 6.207377,6.13212268 6.279138,6.05222268 C6.304633,6.02492268 6.335792,6.01022268 6.354677,5.97342268 C6.347123,5.92512268 6.306521,5.92512268 6.272529,5.94502268 C6.163942,6.01232268 6.069519,6.09432268 5.936382,6.13952268 C5.93355,6.16052268 5.938271,6.16052268 5.948657,6.17632268 C5.942992,6.21202268 5.912777,6.21622268 5.887282,6.22672268 C5.873119,6.21412268 5.861788,6.20252268 5.849513,6.18992268 C5.769253,6.20682268 5.611567,6.34342268 5.592682,6.17102268 C5.570021,6.06592268 5.74848,6.04382268 5.820242,6.01972268 C5.876896,5.99652268 5.93355,5.97342268 5.990204,5.95032268 L6.061021,5.95032268 C6.128061,5.91772268 6.215875,5.79682268 6.279138,5.74322268 C6.318796,5.71172268 6.379227,5.69912268 6.4,5.64652268 L6.4,5.62342268 C6.379227,5.60762268 6.365063,5.59822268 6.325406,5.60032268 C6.265919,5.63812268 6.173384,5.61612268 6.094069,5.63392268 L6.094069,5.63392268 Z M7.991061,5.25852268 C7.973486,5.33262268 7.955912,5.40882268 7.939313,5.48292268 L7.939313,5.57892268 C7.923691,5.60922268 7.908069,5.63942268 7.892447,5.67082268 C7.882683,5.73342268 7.871943,5.79492268 7.862179,5.85762268 L7.862179,6.15082268 C7.819219,6.43992268 7.799691,6.73942268 7.738179,6.98252268 C7.684478,7.19962268 7.738179,7.60452268 7.639565,7.76102268 C7.540951,7.91762268 7.377896,7.86752268 7.172856,7.90822268 C6.79695,7.98122268 6.450336,7.93632268 6.060761,7.98022268 C5.973863,7.99172268 5.871344,7.95932268 5.756131,7.98022268 C5.671186,7.98542268 5.585265,7.99272268 5.499343,8.00002268 C5.342147,7.96352268 5.144918,7.93432268 4.964288,7.96352268 C4.91254,7.95932268 4.861768,7.95722268 4.810997,7.95302268 C4.40287,8.03132268 4.039658,7.96972268 3.607122,7.93952268 C3.390366,7.92492268 3.201925,7.96762268 3.033011,7.87482268 C2.963689,7.83822268 2.921704,7.76102268 2.875815,7.69742268 C2.837736,7.64522268 2.779153,7.60872268 2.751814,7.54502268 C2.702019,7.44172268 2.696161,7.32482268 2.661011,7.20692268 C2.634649,7.11712268 2.591688,7.03262268 2.601452,6.92412268 C2.577043,6.92202268 2.586807,6.92932268 2.57509,6.90532268 C2.578019,6.90222268 2.581925,6.89902268 2.584854,6.89592268 C2.587783,6.90222268 2.592665,6.90842268 2.597547,6.91472268 C2.612192,6.87712268 2.593641,6.82492268 2.587783,6.79572268 C2.581925,6.67782268 2.577043,6.56092268 2.571184,6.44302268 C2.584854,6.36792268 2.560444,6.28022268 2.571184,6.22382268 C2.601452,6.20092268 2.577043,6.08092268 2.584854,6.01832268 C2.599499,5.88162268 2.602429,5.52572268 2.579972,5.41402268 C2.570208,5.35142268 2.559468,5.28882268 2.550681,5.22722268 L2.550681,5.10312268 C2.536035,5.04572268 2.496003,4.93092268 2.511625,4.87452268 C2.508696,4.84222268 2.505767,4.80982268 2.503814,4.77852268 C2.459877,4.65952268 2.350523,4.37992268 2.425704,4.26092268 C2.478429,4.17742268 2.605358,4.18262268 2.686397,4.23382268 C2.871909,4.34862268 3.08183,4.36632268 3.324949,4.39972268 C3.385484,4.40702268 3.461642,4.42582268 3.529988,4.40702268 C3.650083,4.37992268 3.767248,4.35272268 3.88539,4.32452268 C3.950807,4.32252268 4.017201,4.31932268 4.081642,4.31622268 C4.12265,4.30372268 4.165611,4.29122268 4.206618,4.27862268 C4.239815,4.27762268 4.298398,4.29642268 4.3355,4.28912268 C4.433138,4.26512268 4.550304,4.25362268 4.651847,4.23382268 C4.768036,4.20982268 4.973075,4.26402268 5.084383,4.28392268 C5.202524,4.30582268 5.329454,4.30262268 5.439784,4.32452268 C5.498367,4.33712268 5.562808,4.31522268 5.593076,4.30682268 C5.685832,4.28392268 5.796163,4.32042268 5.867438,4.33502268 C5.969958,4.35382268 6.068572,4.29532268 6.159375,4.31202268 C6.304856,4.33712268 6.512824,4.32352268 6.655376,4.29222268 C6.685643,4.29532268 6.715911,4.29952268 6.745202,4.30262268 C6.840887,4.27652268 6.952195,4.30262268 7.036163,4.28912268 C7.119155,4.27452268 7.211911,4.25982268 7.28514,4.24732268 C7.298809,4.22652268 7.310526,4.21502268 7.314431,4.18372268 C7.304667,4.15862268 7.294903,4.13152268 7.275376,4.11902268 C7.2744,4.11792268 6.885801,4.11482268 6.834053,4.11482268 C6.75399,4.11372268 6.652446,4.15442268 6.607533,4.08772268 C6.609486,4.07932268 6.610462,4.07202268 6.612415,4.06372268 C6.669045,4.02092268 6.785234,4.01672268 6.865297,4.02302268 C6.905328,4.02712268 6.947313,4.03242268 6.989297,4.03762268 C7.018588,4.03032268 7.050809,4.01772268 7.084006,4.01462268 C7.14747,4.00942268 7.211911,4.02922268 7.262683,4.00002268 C7.400352,4.01152268 7.540951,4.05952268 7.63566,4.13362268 C7.666904,4.16912268 7.698148,4.20662268 7.729392,4.24212268 C7.778211,4.27862268 7.855345,4.32352268 7.879754,4.38402268 C7.935408,4.52802268 7.921738,4.69712268 7.955912,4.87452268 C7.979345,4.98622268 8.017424,5.10932268 7.991061,5.25852268 L7.991061,5.25852268 Z M10.35806,4.19242268 L10.35806,4.17332268 L10.381719,4.17332268 C10.38602,4.01872268 10.341929,3.91432268 10.301065,3.78112268 C10.28816,3.73852268 10.309668,3.71932268 10.315045,3.69162268 C10.332251,3.62342268 10.292462,3.52542268 10.273105,3.47312268 C10.248371,3.40602268 10.195678,3.37192268 10.164492,3.31862268 C10.111798,3.23122268 10.067708,3.13432268 9.998883,3.06072268 C9.96017,3.03412268 9.923607,3.00432268 9.887044,2.97762268 C9.824672,2.91792268 9.807466,2.82102268 9.735415,2.77192268 L9.702078,2.77192268 C9.680571,2.81352268 9.657988,2.85612268 9.635405,2.89772268 C9.610671,2.91152268 9.588088,2.91472268 9.561204,2.92112268 C9.481625,2.88382268 9.300962,2.63232268 9.371937,2.50982268 C9.425706,2.40752268 9.575184,2.50132268 9.635405,2.46722268 L9.645083,2.45862268 C9.660139,2.41812268 9.6225,2.33502268 9.607445,2.29992268 C9.596691,2.26262268 9.587013,2.22422268 9.575184,2.18802268 C9.511736,2.08572268 9.170841,2.06442268 9.038569,2.01432268 C8.958991,1.99082268 8.880488,1.96742268 8.801985,1.94502268 C8.7009,1.92372268 8.60304,1.94292268 8.499804,1.91622268 C8.233109,1.84802268 7.918023,1.84912268 7.64165,1.79472268 C7.492172,1.76492268 7.335167,1.72552268 7.194292,1.70202268 C7.058794,1.70632268 6.923296,1.71162268 6.788874,1.71482268 C6.571647,1.67972268 6.361948,1.68712268 6.151174,1.66472268 C6.144721,1.65302268 6.143646,1.64772268 6.143646,1.62642268 C6.044711,1.62962268 5.947927,1.63282268 5.850067,1.63602268 C5.536056,1.58162268 5.154296,1.59332268 4.865019,1.64132268 C4.675752,1.67222268 4.495088,1.66472268 4.318726,1.69782268 C4.21549,1.69562268 4.114404,1.69352268 4.011167,1.69242268 C3.811147,1.72762268 3.527246,1.73832268 3.332603,1.77132268 C3.271306,1.77342268 3.210009,1.77772268 3.148713,1.78092268 C3.076662,1.79902268 3.004612,1.81502268 2.931486,1.83312268 C2.831476,1.83952268 2.73039,1.84482268 2.630379,1.85022268 C2.34863,1.90342268 1.978699,1.90342268 1.720608,1.94932268 C1.615221,1.96742268 1.496929,1.93432268 1.385089,1.96742268 C1.319491,1.99082268 1.253893,2.01432268 1.188295,2.03772268 C1.154958,2.10382268 1.294758,2.19862268 1.334547,2.22952268 C1.430255,2.30632268 1.521663,2.41492268 1.635653,2.47252268 C1.744266,2.52682268 1.889443,2.50132268 1.998056,2.54822268 C2.012036,2.56842268 2.021714,2.58652268 2.02279,2.62172268 C1.969021,2.74642268 1.688347,2.81672268 1.536718,2.75702268 C1.437783,2.71972268 1.358205,2.63452268 1.272175,2.58442268 C1.106566,2.48742268 0.9915,2.40222268 0.782877,2.34252268 C0.67964,2.31162268 0.562424,2.27112268 0.419398,2.29992268 C0.290353,2.32652268 0.060221,2.58232268 0,2.68782268 L0.079578,7.19012268 C0.134423,7.33932268 0.190342,7.48742268 0.244111,7.63552268 C0.294654,7.77302268 0.291428,7.94242268 0.338745,8.08312268 C0.397891,8.26002268 0.541992,8.36122268 0.646303,8.49022268 C0.725882,8.59252268 0.765671,8.72042268 0.858153,8.80782268 C1.011933,8.95692268 1.290456,8.97612268 1.461441,9.11152268 C1.575432,9.20202268 1.588336,9.37362268 1.706628,9.44822268 C1.78298,9.49512268 1.92493,9.44932268 2.027091,9.46632268 C2.324972,9.51432268 2.637907,9.52492268 2.931486,9.47062268 C3.048702,9.44932268 3.192803,9.48552268 3.280984,9.50362268 C3.38207,9.52492268 3.481005,9.51642268 3.569186,9.53242268 C3.619729,9.52922268 3.669197,9.52812268 3.719739,9.52712268 C3.796091,9.54092268 3.901479,9.53242268 3.949871,9.51432268 C3.946645,9.52072268 3.941268,9.52812268 3.936966,9.53672268 C4.169248,9.52282268 4.424113,9.43012268 4.657471,9.45672268 C4.743501,9.46842268 4.897281,9.44392268 4.991914,9.46212268 C5.183332,9.49722268 5.361845,9.52712268 5.576921,9.49832268 C5.78662,9.47382268 5.944701,9.43862268 6.132892,9.40132268 C6.230752,9.38212268 6.353345,9.39282268 6.457657,9.37792268 C6.535084,9.36722268 6.796402,9.37472268 6.873829,9.38212268 C6.928673,9.39922268 6.984593,9.41622268 7.038362,9.43432268 C7.184614,9.44392268 7.331941,9.43332268 7.463137,9.46212268 C7.552394,9.48232268 7.61154,9.56222268 7.698645,9.58782268 C7.872857,9.64112268 8.197622,9.50572268 8.339572,9.45252268 C8.415924,9.42372268 8.513783,9.39392268 8.53314,9.31182268 C8.647131,9.27242268 8.690146,9.36302268 8.811664,9.29902268 C8.875111,9.26382268 8.907373,9.19142268 8.962217,9.14982268 C9.293434,8.88662268 9.470872,8.51262268 9.583787,8.04692268 C9.596691,7.93292268 9.609596,7.82202268 9.6225,7.70912268 C9.649385,7.60362268 9.67842,7.49812268 9.707455,7.39262268 C9.72036,7.31692268 9.732189,7.24342268 9.744018,7.16772268 C9.809616,6.99722268 9.803164,6.78302268 9.86231,6.59442268 C9.967697,6.25342268 10.034371,5.89962268 10.112874,5.54582268 C10.113949,5.48612268 10.115024,5.42542268 10.117175,5.36572268 C10.133306,5.28792268 10.149436,5.21232268 10.164492,5.13552268 C10.169869,5.06842268 10.17417,5.00132268 10.178472,4.93522268 C10.220412,4.78282268 10.303216,4.62082268 10.352683,4.46742268 C10.334402,4.40242268 10.382794,4.27662268 10.4,4.21482268 C10.376342,4.20742268 10.379568,4.19032268 10.35806,4.19242268 L10.35806,4.19242268 Z M26.691298,7.77732268 C26.650733,7.77082268 26.60688,7.76432268 26.565219,7.75782268 C26.000603,7.53542268 25.33622,7.39542268 24.849445,7.09272268 C24.689379,6.99292268 24.555626,6.86712268 24.384596,6.76402268 C24.345128,6.74122268 24.278251,6.66962268 24.230012,6.67832268 C24.211375,6.61432268 24.124764,6.58502268 24.072139,6.54052268 C24.016226,6.48192268 23.963601,6.42442268 23.907688,6.36472268 C23.866027,6.32782268 23.815595,6.30182268 23.782705,6.25522268 C23.604002,6.01002268 23.424202,5.77132268 23.264136,5.50442268 C23.185199,5.37092268 23.168754,5.22232268 23.089818,5.08992268 C23.045964,5.01292268 22.899054,4.51932268 22.951679,4.40972268 C23.015267,4.27522268 23.211512,4.29692268 23.364999,4.26322268 C23.434069,4.24702268 23.539318,4.23942268 23.613869,4.22422268 C23.627025,4.22202268 23.682938,4.23072268 23.686227,4.22962268 C23.759682,4.20142268 23.894532,4.18512268 23.974565,4.17642268 C24.147787,4.17862268 24.318816,4.18292268 24.489845,4.18512268 C24.590709,4.15692268 24.725558,4.17642268 24.870275,4.14822268 C25.427217,4.04082268 26.330602,4.07772268 26.624421,3.70562268 C26.638673,3.66652268 26.652926,3.62642268 26.666082,3.58732268 C26.728573,3.48862268 26.79545,3.29982268 26.800932,3.18702268 C26.80751,3.07852268 26.701165,2.97432268 26.72967,2.87232268 C26.786679,2.76172268 26.944553,2.75302268 26.927011,2.57402268 C26.81957,2.49912268 26.609072,2.54252268 26.450103,2.51542268 C25.990736,2.51972268 25.531369,2.52302268 25.070906,2.52732268 C24.896588,2.52952268 24.721173,2.53282268 24.546855,2.53602268 C24.378018,2.52732268 24.206989,2.51542268 24.038153,2.50672268 C23.784898,2.46772268 23.398986,2.48292268 23.177525,2.50672268 C22.925367,2.53492268 22.593175,2.48722268 22.345402,2.50242268 C22.143675,2.51542268 21.949623,2.48392268 21.764342,2.52732268 L21.625106,2.53602268 C21.62401,2.53282268 21.622914,2.52952268 21.619625,2.52732268 L21.447499,2.51972268 C21.405838,2.50782268 21.364177,2.49702268 21.322516,2.48392268 L21.312649,2.48392268 C21.209593,2.47092268 21.12956,2.50242268 21.052816,2.51542268 C20.849993,2.55772268 20.598931,2.56422268 20.419131,2.50672268 C20.353351,2.48722268 20.256873,2.42212268 20.236042,2.36032268 C20.175743,2.18342268 20.208634,1.48362268 20.251391,1.37082268 C20.288667,1.26882268 20.375278,1.18092268 20.375278,1.05292268 C20.374181,0.877222677 20.357736,0.667822677 20.260162,0.541922677 C20.205345,0.472522677 20.120926,0.426922677 20.057339,0.366222677 C19.765712,0.0884226773 19.506975,-0.00807732274 18.943456,0.000522677256 C18.886446,0.0222226773 18.823955,0.00272267726 18.755982,0.0157226773 C18.441332,0.0689226773 18.274688,0.0515226773 18.183692,0.337922677 C18.154091,0.428022677 18.19027,0.509422677 18.168343,0.609222677 C18.127779,0.800122677 18.142031,1.01932268 18.163958,1.20372268 C18.179307,1.32852268 18.162861,1.45982268 18.179307,1.58022268 C18.192463,1.68112268 18.212197,1.76902268 18.199041,1.85582268 C18.167247,2.04242268 18.26811,2.36132268 18.135453,2.44052268 C18.015952,2.51322268 17.85479,2.46012268 17.712265,2.47852268 C17.631136,2.47742268 17.548911,2.47532268 17.467781,2.47422268 C17.389941,2.48722268 17.300041,2.50242268 17.232068,2.51542268 L16.963464,2.51542268 C16.438317,2.55882268 15.85616,2.54252268 15.338687,2.47422268 C15.275099,2.46552268 15.195066,2.48832268 15.145731,2.49802268 C15.064602,2.51322268 15.013074,2.47422268 14.934137,2.49372268 C14.848623,2.51112268 14.734603,2.54692268 14.62168,2.53602268 C14.491216,2.52192268 14.321283,2.46442268 14.164506,2.49372268 C14.085569,2.50782268 14.00444,2.52412268 13.925504,2.54142268 C13.858627,2.53932268 13.792846,2.53822268 13.727066,2.53602268 C13.641551,2.54692268 13.559326,2.48502268 13.488064,2.46872268 C13.382815,2.46012268 13.278662,2.45462268 13.175606,2.44602268 C12.999096,2.41782268 12.833548,2.50242268 12.709662,2.54582268 C12.604413,2.58162268 12.496971,2.54692268 12.391723,2.56962268 C12.328135,2.60112268 12.263451,2.63262268 12.198767,2.66402268 C12.099,2.69122268 11.947705,2.72912268 11.891791,2.79212268 C11.835878,2.85612268 11.767905,2.99822268 11.747074,3.08282268 C11.732822,3.14472268 11.761327,3.20542268 11.771194,3.25422268 L11.771194,3.46802268 C11.755845,3.62422268 11.709799,3.76962268 11.69445,3.95292268 C11.681294,4.12222268 11.815047,4.20682268 11.881924,4.30012268 C11.914814,4.34682268 11.935645,4.40322268 11.978402,4.43902268 C12.070495,4.51172268 12.34458,4.59412268 12.530958,4.55182268 C12.58139,4.53992268 12.64717,4.52252268 12.70418,4.52902268 C13.012252,4.55942268 13.404742,4.53122268 13.688694,4.53452268 C13.864109,4.53552268 14.063643,4.44662268 14.222612,4.49542268 C14.309223,4.49322268 14.395834,4.49002268 14.482445,4.48672268 C14.674305,4.51282268 15.204934,4.37822268 15.284966,4.62452268 C15.31676,4.71672268 15.298123,4.82852268 15.30799,4.91422268 C15.375963,5.40352268 14.925367,5.83962268 14.728025,6.14232268 C14.684172,6.18032268 14.641414,6.21942268 14.597561,6.25952268 C14.532877,6.34632268 14.445169,6.41902268 14.385967,6.50362268 C14.371714,6.52752268 14.357462,6.54922268 14.342113,6.57302268 C14.304838,6.59472268 14.266466,6.61642268 14.228094,6.63602268 C14.160121,6.72382268 14.117363,6.85952268 14.045005,6.93972268 C14.005537,6.96692268 13.967165,6.99402268 13.928793,7.02112268 C13.822448,7.11012268 13.7468,7.24032268 13.641551,7.33142268 C13.550555,7.39542268 13.459559,7.46052268 13.367466,7.52452268 C13.327998,7.56902268 13.290722,7.61352268 13.251254,7.65802268 C12.938797,7.89012268 12.649363,8.13972268 12.324846,8.36212268 C12.073784,8.51512268 11.821625,8.66702268 11.569467,8.81992268 C11.459833,8.87642268 11.296478,8.89702268 11.2,8.97072268 L11.2,8.97512268 C11.25701,9.04892268 11.439002,9.00002268 11.511361,8.96752268 C11.660463,8.89912268 11.841359,8.85032268 12.002522,8.77652268 C12.066109,8.74622268 12.184514,8.67132268 12.256873,8.67672268 C12.260162,8.67562268 12.263451,8.67242268 12.265643,8.67132268 C12.267836,8.67672268 12.270029,8.68112268 12.271125,8.68652268 C12.208634,8.79502268 11.80518,8.94472268 11.660463,8.99032268 C11.594683,9.01202268 11.477374,9.01962268 11.434617,9.06622268 C11.354584,9.16392268 11.617706,9.13352268 11.690064,9.13782268 C11.75146,9.14222268 11.849034,9.11722268 11.910429,9.10422268 C11.978402,9.10312268 12.045279,9.10202268 12.113252,9.09982268 C12.194381,9.09122268 12.27551,9.08142268 12.357736,9.07162268 C12.357736,9.05862268 12.358832,9.06512268 12.353351,9.05322268 C12.375278,9.06302268 12.388434,9.06622268 12.415842,9.05322268 L12.424613,9.05322268 C12.42242,9.05102268 12.418035,9.04892268 12.415842,9.04782268 C12.464081,9.01522268 12.613184,9.03582268 12.678964,9.01852268 C12.712951,9.00552268 12.746937,8.99032268 12.78202,8.97512268 C12.846704,8.96752268 12.911388,8.95772268 12.978265,8.94692268 C13.346636,8.83622268 13.741318,8.75702268 14.078991,8.59102268 C14.369522,8.44672268 14.587694,8.21782268 14.843141,8.04422268 C15.029519,7.91732268 15.170947,7.77412268 15.32882,7.62002268 C15.722406,7.23272268 16.071043,6.84102268 16.380211,6.36472268 C16.562204,6.08592268 16.779279,5.83312268 16.915225,5.50442268 C16.936056,5.41002268 16.959079,5.31342268 16.982102,5.21802268 C16.974428,5.21472268 16.965657,5.20932268 16.956886,5.20392268 C17.005125,5.00312268 16.929478,4.87842268 16.851638,4.71892268 C16.830807,4.67552268 16.824229,4.60932268 16.804495,4.57572268 C16.782568,4.53882268 16.757352,4.51282268 16.756256,4.45202268 C16.77599,4.43142268 16.804495,4.39562268 16.833,4.38692268 C16.861505,4.38802268 16.891106,4.39122268 16.919611,4.39122268 C16.990873,4.37392268 17.149842,4.35442268 17.245224,4.37062268 C17.319775,4.38692268 17.374592,4.41512268 17.452433,4.40972268 C17.596053,4.40212268 18.003892,4.31962268 18.120104,4.45202268 C18.181499,4.52252268 18.219871,4.71242268 18.193559,4.85562268 C18.184788,4.90012268 18.162861,4.94562268 18.173825,5.00532268 C18.208908,5.19632268 18.185885,5.44252268 18.168343,5.62702268 C18.174921,5.65742268 18.181499,5.68772268 18.188077,5.71812268 C18.2111,5.83202268 18.186981,5.96442268 18.173825,6.06102268 C18.179307,6.08702268 18.183692,6.11412268 18.188077,6.14232268 C18.204522,6.23132268 18.173825,6.31162268 18.173825,6.37882268 C18.174921,6.43092268 18.200137,6.50252268 18.183692,6.56442268 C18.134357,6.74232268 18.000603,6.70432268 17.804358,6.72602268 C17.698013,6.73902268 17.545621,6.70872268 17.43818,6.71632268 C17.266055,6.72822268 17.05775,6.74552268 16.875757,6.74552268 C16.814362,6.74452268 16.75516,6.74342268 16.693765,6.74012268 C16.637851,6.72712268 16.586323,6.66092268 16.526024,6.66852268 C16.408716,6.68702268 16.209182,6.97232268 16.183966,7.09272268 C16.167521,7.16762268 16.208086,7.22072268 16.213567,7.27392268 C16.219049,7.33792268 16.212471,7.42042268 16.189448,7.48222268 C16.169714,7.53652268 16.159847,7.61462268 16.134631,7.67752268 C16.098451,7.77512268 16.000877,7.89452268 16.044731,8.03342268 C16.160943,8.40772268 16.947019,8.24822268 17.298945,8.27752268 C17.392134,8.27202268 17.485323,8.26662268 17.578512,8.26232268 C17.745156,8.26232268 18.054324,8.20802268 18.14532,8.25792268 C18.257147,8.31982268 18.203426,8.63662268 18.226449,8.79502268 L18.226449,8.96752268 C18.242894,9.13352268 18.257147,9.30062268 18.288941,9.47522268 C18.291133,9.53922268 18.29223,9.60112268 18.293326,9.66622268 C18.319638,9.78552268 18.332794,9.91032268 18.365685,10.0470227 C18.38213,10.1110227 18.436947,10.1501227 18.451199,10.2130227 C18.568508,10.2803227 18.696779,10.1088227 18.845882,10.2358227 C18.887543,10.2727227 18.920433,10.3269227 18.962094,10.3605227 C19.080499,10.4538227 19.282226,10.3584227 19.385282,10.3128227 L19.602357,10.2553227 C19.730629,10.1978227 19.773386,10.1533227 19.870961,10.0752227 C19.911525,10.0416227 19.944416,10.0275227 19.966342,9.97542268 C20.046375,9.78882268 20.008003,9.55232268 20.034315,9.32882268 C20.047472,9.21052268 20.063917,9.07812268 20.044183,8.95342268 C20.012389,8.75162268 19.989365,8.37622268 20.081458,8.25362268 C20.163684,8.14512268 20.381856,8.20692268 20.523284,8.17662268 C20.642785,8.15272268 20.816007,8.19502268 20.957435,8.16682268 C21.296204,8.10282268 21.861916,8.15492268 22.043908,7.86852268 C22.140386,7.71332268 21.94743,7.36072268 21.913444,7.18282268 C21.896999,7.09712268 21.984706,7.06892268 21.985802,6.95392268 C21.951816,6.91912268 21.912348,6.89092268 21.86959,6.86382268 L21.86959,6.84432268 C21.884939,6.82372268 21.905769,6.80632268 21.932082,6.79762268 C21.945238,6.78032268 21.949623,6.78032268 21.951816,6.75102268 C21.866301,6.66312268 21.675538,6.65122268 21.504509,6.67832268 C21.319227,6.70872268 21.080225,6.69352268 20.902618,6.67832268 C20.787502,6.66852268 20.62634,6.69672268 20.514513,6.68372268 C20.409264,6.67182268 20.244813,6.70212268 20.173551,6.65012268 C20.021159,6.54052268 20.108867,6.01652268 20.105578,5.83202268 C20.105578,5.78862268 20.136275,5.61832268 20.091325,5.59882268 C20.096807,5.57172268 20.094614,5.57922268 20.115445,5.57062268 C20.111059,5.44252268 20.105578,5.31342268 20.100096,5.18432268 C20.102289,5.12792268 20.104481,5.07152268 20.105578,5.01402268 C20.089133,4.94352268 20.095711,4.80792268 20.115445,4.75142268 C20.092422,4.70592268 20.137372,4.55942268 20.153817,4.53452268 C20.207537,4.45742268 20.384048,4.41622268 20.494779,4.44332268 C20.529862,4.45202268 20.560559,4.48892268 20.606605,4.48132268 C20.910292,4.43362268 21.247965,4.45422268 21.413512,4.66792268 C21.505605,4.78402268 21.517665,4.98142268 21.572482,5.13332268 C21.688694,5.45772268 21.80381,5.81582268 21.94743,6.12172268 C21.985802,6.18682268 22.023078,6.25302268 22.06145,6.31702268 C22.12723,6.45042268 22.167795,6.58502268 22.254406,6.69782268 C22.332246,6.79762268 22.446266,6.93432268 22.508757,7.03962268 C22.5559,7.11772268 22.585501,7.18282268 22.639222,7.25002268 C22.726929,7.35962268 22.826696,7.42252268 22.91221,7.53542268 C23.08324,7.75782268 23.27181,7.94772268 23.489982,8.12452268 L23.624832,8.28182268 C23.659915,8.30892268 23.698287,8.33822268 23.735563,8.36752268 C23.855064,8.51512268 24.157654,8.77872268 24.321009,8.86222268 C24.532602,8.97072268 24.768316,9.04562268 25.007318,9.09982268 C25.052268,9.09662268 25.095025,9.09442268 25.138879,9.09122268 C25.4623,9.07382268 25.779142,8.95772268 26.05542,8.80472268 C26.11243,8.77002268 26.169439,8.73532268 26.224257,8.69952268 C26.383226,8.63012268 26.804221,8.41742268 26.859038,8.27752268 L26.859038,8.27202268 C26.793258,8.24062268 26.638673,8.26452268 26.552062,8.27752268 C26.365685,8.30462268 26.170536,8.24492268 26.076251,8.17222268 L26.076251,8.16252268 C26.148609,8.06592268 26.307578,8.09192268 26.465452,8.10172268 C26.546581,8.09852268 26.62771,8.09412268 26.711032,8.09192268 C26.825051,8.10932268 26.964287,8.12992268 27.080499,8.08652268 C27.081595,8.08222268 27.083788,8.07682268 27.084884,8.07242268 C27.06515,8.04102268 27.043223,8.02362268 27.027874,7.98562268 C27.06515,7.94332268 27.15505,7.94112268 27.2,7.90532268 L27.2,7.89992268 C27.15505,7.86192268 27.087077,7.87932268 27.013622,7.86412268 C26.907277,7.83922268 26.787776,7.80342268 26.691298,7.77732268 L26.691298,7.77732268 Z M34.891216,8.79362268 C34.748816,8.81332268 34.107216,8.78592268 34.017616,8.73562268 C33.899216,8.67212268 33.953616,8.48712268 33.924816,8.37112268 C33.884816,8.21022268 33.867216,7.97492268 33.806416,7.82392268 C33.787216,7.74512268 33.768016,7.66732268 33.750416,7.58962268 C33.731216,7.52942268 33.744016,7.40252268 33.784016,7.35872268 C33.862416,7.27662268 34.116816,7.23502268 34.268816,7.21092268 C34.356816,7.20662268 34.446416,7.20332268 34.536016,7.20002268 C34.734416,7.23832268 34.678416,7.41122268 34.724816,7.55462268 C34.795216,7.68922268 34.864016,7.82392268 34.934416,7.95852268 C34.990416,8.08112268 35.004816,8.23762268 35.038416,8.36132268 C35.081616,8.50682268 35.064016,8.76952268 34.891216,8.79362268 L34.891216,8.79362268 Z M34.218421,8.70342268 C34.176821,8.77082268 34.047221,8.76222268 33.946421,8.77942268 C33.730421,8.81092268 33.154421,8.81232268 33.012021,8.74072268 C32.904821,8.68482268 32.946421,8.50132268 32.935221,8.37662268 C32.943221,8.28632268 32.948021,8.19612268 32.954421,8.10582268 C32.991221,7.81632268 32.895221,7.39632268 33.152821,7.27022268 C33.300021,7.19572268 33.720821,7.27172268 33.840821,7.20002268 C33.882421,7.20292268 33.940021,7.21862268 33.959221,7.23872268 C34.088821,7.26312268 34.108021,7.77902268 34.148021,7.91802268 C34.200821,8.08712268 34.335221,8.51572268 34.218421,8.70342268 L34.218421,8.70342268 Z M32.7856,5.68872268 C32.7584,5.71752268 32.5968,5.96872268 32.5968,5.96872268 C32.5168,6.00392268 32.4192,5.98312268 32.344,5.96872268 C32.3376,5.95432268 32.3312,5.94152268 32.3232,5.92872268 C32.3328,5.82312268 32.4256,5.80392268 32.4784,5.73992268 C32.6432,5.53352268 32.976,5.33192268 33.2288,5.21192268 C33.2592,5.22152268 33.2592,5.22792268 33.2768,5.24712268 C33.1808,5.49352268 32.9488,5.51752268 32.7856,5.68872268 L32.7856,5.68872268 Z M31.546067,8.77682268 L31.320467,8.77682268 C31.211667,8.79272268 31.062867,8.81992268 30.920467,8.77682268 C30.856467,8.75762268 30.781267,8.72092268 30.746067,8.67132268 C30.683667,8.58832268 30.730067,8.47482268 30.710867,8.35502268 C30.661267,8.06432268 30.722067,7.59302268 30.850067,7.41092268 C30.875667,7.37732268 31.130067,7.21762268 31.179667,7.20802268 C31.242067,7.20642268 31.302867,7.20322268 31.363667,7.20002268 C31.725267,7.31182268 31.586067,7.71122268 31.678867,8.09782268 C31.725267,8.28952268 31.731667,8.70492268 31.546067,8.77682268 L31.546067,8.77682268 Z M39.455443,9.02252268 C39.450228,8.99232268 39.443971,8.99022268 39.447099,8.95482268 C39.478386,8.93502268 39.511759,8.91522268 39.543046,8.89442268 C39.649422,8.84122268 39.95395,8.75472268 39.976894,8.63912268 C39.973765,8.60572268 39.967508,8.57242268 39.964379,8.53902268 C39.927877,8.51512268 39.848617,8.51612268 39.867389,8.46092268 C39.813158,8.39422268 39.592063,8.43592268 39.50133,8.41502268 C39.302136,8.36922268 39.03411,8.28062268 38.903747,8.16912268 C38.888104,8.14722268 38.87246,8.12332268 38.857859,8.10142268 C38.781727,8.01392268 38.601305,7.86172268 38.560632,7.75442268 C38.533517,7.68252268 38.501187,7.62412268 38.473028,7.55752268 C38.462599,7.51162268 38.45217,7.46892268 38.440698,7.42412268 C38.413583,7.37822268 38.386467,7.33242268 38.359352,7.28652268 C38.264448,7.04582268 38.176844,6.76452268 38.093412,6.54362268 C38.068382,6.47792268 38.079854,6.41122268 38.05691,6.34142268 C37.985993,6.10912268 37.901518,5.93502268 37.856673,5.67872268 C37.844158,5.61412268 37.857716,5.50162268 37.889003,5.45882268 C37.940105,5.39012268 38.058996,5.39012268 38.148686,5.35992268 C38.296778,5.30982268 38.486586,5.26192268 38.60652,5.16712268 C38.802586,5.01182268 38.652408,4.88372268 38.683695,4.67422268 C38.695167,4.59612268 38.781727,4.43452268 38.734797,4.34912268 C38.611734,4.13242268 38.108012,4.16052268 37.892132,4.28972268 C37.843115,4.32102268 37.633492,4.41582268 37.567789,4.38662268 C37.498957,4.35332268 37.487485,4.21362268 37.449941,4.14902268 C37.422825,4.10322268 37.386324,4.05532268 37.37068,3.99792268 C37.347736,3.91042268 37.294548,3.80002268 37.362337,3.71562268 C37.408225,3.65722268 37.509386,3.67072268 37.585518,3.65512268 C37.775326,3.61972268 37.940105,3.62182268 38.148686,3.58222268 C38.231075,3.56652268 38.376038,3.59472268 38.440698,3.53742268 C38.561675,3.42902268 38.446956,3.32582268 38.418797,3.21752268 C38.392725,3.11542268 38.470942,3.06742268 38.473028,2.99762268 C38.476157,2.92572268 38.411497,2.87782268 38.413583,2.82882268 C38.408368,2.77672268 38.510573,2.74862268 38.482414,2.67352268 C38.431312,2.58602268 38.196659,2.61732268 38.093412,2.58182268 C38.085069,2.56622268 38.079854,2.55582268 38.075682,2.53082268 C38.406283,2.21192268 38.116356,2.07752268 37.860844,1.90142268 C37.768026,1.83682268 37.713795,1.72012268 37.613677,1.66382268 C37.502086,1.59922268 37.123512,1.65552268 37.023394,1.71912268 C36.984806,1.74202268 36.990021,1.78372268 36.973334,1.83162268 C36.895117,2.06602268 37.110997,2.30472268 37.252832,2.39952268 C37.304977,2.43492268 37.383195,2.44742268 37.394667,2.52142268 C37.38841,2.53292268 37.382152,2.54432268 37.375895,2.55372268 C37.297677,2.58182268 37.198601,2.57872268 37.123512,2.55892268 C37.085968,2.55272268 37.045295,2.54752268 37.005664,2.54122268 C36.933704,2.50472268 36.865915,2.32552268 36.81377,2.24742268 C36.797084,2.23282268 36.780397,2.21712268 36.763711,2.20152268 C36.743896,2.15462268 36.724081,2.10462268 36.703223,2.05672268 C36.676107,2.02232268 36.648992,1.98582268 36.621876,1.95142268 C36.583289,1.85762268 36.602061,1.76802268 36.558259,1.67742268 C36.491513,1.56482268 36.42581,1.45232268 36.360108,1.33982268 C36.243302,1.09592268 36.301705,0.860422677 35.985706,0.800022677 C35.936689,0.819822677 35.775039,0.863622677 35.720808,0.855222677 C35.656148,0.843822677 35.573759,0.825022677 35.50597,0.851122677 C35.423581,0.881322677 35.387079,0.966722677 35.318248,1.01052268 C35.27236,1.04072268 35.202486,1.05842268 35.181628,1.11052268 C35.148255,1.19082268 35.201443,1.30952268 35.218129,1.37622268 C35.246288,1.48982268 35.244202,1.60652268 35.273403,1.72432268 C35.303647,1.84622268 35.364136,1.96392268 35.396466,2.07022268 C35.430881,2.18592268 35.503884,2.34632268 35.414195,2.44532268 C35.351621,2.51102268 35.007463,2.55272268 34.860414,2.52772268 C34.71545,2.50162268 34.527728,2.52042268 34.348348,2.49122268 C34.237801,2.47142268 34.140811,2.44852268 34.010448,2.46202268 L33.764323,2.52772268 L33.517155,2.52772268 C33.435809,2.53602268 33.355505,2.54542268 33.275202,2.55372268 C33.266858,2.54852268 33.259558,2.54222268 33.251215,2.53602268 C33.256429,2.51412268 33.261644,2.49332268 33.264773,2.47242268 C33.180297,2.39432268 32.797552,2.46412268 32.625473,2.44532268 C32.499282,2.42872268 32.334503,2.46312268 32.205183,2.44012268 C32.136352,2.42762268 32.06022,2.39222268 31.976788,2.40782268 C31.842253,2.43282268 31.680603,2.43702268 31.546069,2.43082268 C31.441779,2.42552268 31.225898,2.49432268 31.125779,2.45472268 C31.099707,2.42762268 31.070505,2.40162268 31.044433,2.37662268 C30.88174,2.30362268 30.799351,2.79862268 30.769107,2.92572268 C30.72739,3.09972268 30.757635,3.25192268 30.786836,3.44052268 C30.808737,3.57382268 30.685674,3.61662268 30.791007,3.74682268 C30.826466,3.78852268 31.064248,3.89892268 31.129951,3.91982268 C31.283258,3.96882268 31.441779,3.91672268 31.596128,3.94272268 C31.774465,3.97292268 31.962187,3.96462268 32.123837,3.94272268 L32.272972,3.95212268 C32.401249,3.94382268 32.529526,3.93752268 32.657803,3.92922268 C32.9081,3.97292268 33.064535,3.89372268 33.31066,3.90622268 C33.429551,3.91252268 33.547399,3.91042268 33.649604,3.93752268 C33.688191,3.92712268 33.782052,3.92192268 33.82794,3.92922268 C33.877999,3.93232268 33.929102,3.93542268 33.979161,3.93752268 C34.083451,3.91772268 34.237801,3.85212268 34.348348,3.85522268 C34.484969,3.85312268 34.619503,3.85002268 34.756123,3.84792268 C35.00642,3.81772268 35.275489,3.82292268 35.492413,3.84272268 C35.546643,3.84792268 35.583145,3.82602268 35.624861,3.81982268 C35.697864,3.80832268 35.818841,3.88852268 35.848042,3.92922268 C35.896016,3.99482268 35.907488,4.08552268 35.934603,4.16672268 C35.995092,4.34492268 36.04828,4.50962268 36.105639,4.71172268 C36.12754,4.79512268 36.180728,4.90872268 36.14527,5.01182268 C36.08791,5.18482268 35.88663,5.26502268 35.753138,5.36512268 C35.675963,5.43902268 35.600874,5.51302268 35.5237,5.58812268 C35.354749,5.70892268 35.211872,5.84542268 35.06378,5.98512268 C34.994948,6.04762268 34.918816,6.09762268 34.939674,6.22262268 C34.945932,6.22782268 34.955318,6.23202268 34.961575,6.23722268 C34.99912,6.24562268 35.030407,6.21222268 35.06378,6.20492268 C35.113839,6.19242268 35.120096,6.23722268 35.16807,6.22782268 C35.210829,6.21852268 35.343277,6.12892268 35.381865,6.09972268 C35.418366,6.07152268 35.500756,6.03722268 35.533086,6.07782268 C35.532043,6.08412268 35.529957,6.09132268 35.528914,6.09972268 C35.464254,6.21952268 35.229601,6.23202268 35.222301,6.40602268 C35.224387,6.40922268 35.226472,6.41232268 35.227515,6.41442268 C35.347449,6.48422268 35.47364,6.39562268 35.575845,6.36022268 C35.585231,6.36332268 35.779211,6.28622268 35.803198,6.27372268 C35.940861,6.19762268 36.27459,6.01222268 36.434154,6.04452268 C36.478998,6.10912268 36.502985,6.19142268 36.516543,6.26852268 C36.532186,6.29662268 36.546787,6.32582268 36.561388,6.35602268 C36.596846,6.44152268 36.620833,6.54362268 36.643777,6.62692268 C36.663592,6.71662268 36.68445,6.81032268 36.703223,6.90412268 C36.724081,6.95832268 36.743896,7.01352268 36.763711,7.06772268 L36.786655,7.17822268 C36.815856,7.23862268 36.864872,7.32302268 36.877387,7.39282268 C36.90346,7.52312268 36.934747,7.67422268 36.981678,7.80752268 C37.002536,7.86592268 37.039037,7.91802268 37.064067,7.96802268 C37.096397,8.08472268 37.12977,8.20142268 37.161057,8.31922268 C37.206944,8.54012268 37.280991,8.74432268 37.351908,8.94132268 C37.384238,9.02152268 37.400924,9.14972268 37.326878,9.18822268 C37.220502,9.24032268 36.855486,9.20592268 36.777269,9.14242268 C36.639605,9.02982268 36.660464,8.65052268 36.621876,8.44732268 L36.574945,8.30562268 C36.556173,8.22962268 36.561388,8.15972268 36.535315,8.08682268 C36.470655,7.91492268 36.338207,7.68462268 36.374708,7.47832268 C36.358022,7.41572268 36.341335,7.35432268 36.323606,7.29172268 C36.332992,7.25112268 36.342378,7.20942268 36.351764,7.16882268 L36.338207,6.98432268 C36.360108,6.87292268 36.498814,6.78852268 36.323606,6.67902268 C36.214101,6.61032268 35.857428,6.65302268 35.693693,6.63842268 C35.419409,6.61552268 35.165984,6.57802268 34.906301,6.61962268 C34.806183,6.63632268 34.687292,6.60612268 34.592388,6.63322268 C34.51417,6.66342268 34.436995,6.69262268 34.357734,6.72072268 L34.175227,6.72912268 C33.98959,6.76762268 33.786224,6.80512268 33.585987,6.76552268 C33.47961,6.74682268 33.399307,6.79262268 33.305446,6.75822268 C33.299188,6.74362268 33.290845,6.72912268 33.283545,6.71662268 C33.382621,6.58532268 33.632917,6.61442268 33.822725,6.59262268 C34.02922,6.57072268 34.220071,6.47792268 34.321233,6.32272268 C34.501655,6.04652268 34.313933,5.90792268 34.180441,5.71102268 C34.124124,5.62972268 34.075108,5.47242268 34.171055,5.39632268 C34.241972,5.33902268 34.348348,5.38172268 34.454724,5.35462268 C34.632018,5.30982268 34.901087,5.34112268 35.049179,5.23692268 C35.152426,5.16292268 35.188928,5.00662268 35.218129,4.85242268 C35.217086,4.80452268 35.215,4.75442268 35.212915,4.70552268 C35.233773,4.62112268 35.316162,4.61382268 35.313033,4.49192268 C35.116968,4.28352268 34.548586,4.48462268 34.2305,4.44602268 C34.08658,4.42832268 33.894686,4.47932268 33.745551,4.50122268 C33.46501,4.49082268 33.184469,4.47932268 32.903928,4.46792268 C32.787123,4.48142268 32.669275,4.49392268 32.551427,4.50442268 C32.511797,4.50122268 32.469038,4.49602268 32.428365,4.49192268 C32.360576,4.48042268 32.170768,4.48872268 32.112365,4.49602268 C31.895441,4.52212268 31.619072,4.50962268 31.401106,4.48662268 C31.14768,4.45962268 30.679417,4.54602268 30.536539,4.44082268 C30.329002,4.28872268 30.373846,4.02922268 30.362374,3.75102268 C30.351945,3.52282268 30.404091,3.19982268 30.459364,2.96012268 C30.475008,2.89032268 30.448935,2.83402268 30.462493,2.76522268 C30.47918,2.73402268 30.496909,2.70382268 30.513595,2.67352268 C30.528196,2.55162268 30.54384,2.42872268 30.55844,2.30782268 C30.549054,2.25992268 30.52611,2.20782268 30.517767,2.15252268 C30.504209,2.06402268 30.56574,1.98482268 30.581384,1.92952268 C30.599113,1.86602268 30.527153,1.75972268 30.503166,1.72432268 L30.459364,1.72432268 C30.397833,1.81182268 30.378018,2.01192268 30.302929,2.07442268 C30.287285,2.07542268 30.271642,2.07652268 30.257041,2.07862268 C30.237226,2.05882268 30.214282,2.04422268 30.206982,2.01082268 C30.187167,1.92952268 30.233055,1.85762268 30.169437,1.81392268 C30.088091,1.75662268 29.871167,1.70662268 29.744976,1.74612268 C29.676145,1.76702268 29.618785,1.82952268 29.558297,1.85972268 C29.515538,1.87642268 29.475907,1.89412268 29.433148,1.90972268 C29.237083,2.03692268 28.978443,2.49952268 28.91274,2.76842268 C28.901268,2.88722268 28.890839,3.00392268 28.88041,3.12162268 C28.843908,3.27172268 28.775077,3.38212268 28.730232,3.50822268 C28.659314,3.71032268 28.623856,3.93852268 28.584225,4.12092268 C28.55711,4.24392268 28.592569,4.36372268 28.610298,4.45542268 C28.637414,4.58152268 28.586311,4.80972268 28.56441,4.92122268 C28.567539,4.96492268 28.568582,5.00972268 28.569625,5.05452268 C28.545638,5.11812268 28.521651,5.18482268 28.497665,5.24942268 C28.434047,5.49012268 28.380859,5.71732268 28.318285,5.95802268 C28.271355,6.13622268 28.296384,6.33622268 28.254668,6.52482268 C28.211909,6.71452268 28.147249,6.91562268 28.108662,7.10422268 C28.051302,7.37302268 28.033573,7.62732268 27.953269,7.85762268 C27.864623,8.10762268 27.756161,8.33272268 27.668557,8.57132268 C27.635184,8.66092268 27.603897,8.75472268 27.583039,8.83602268 C27.574696,8.87872268 27.567395,8.92042268 27.560095,8.96422268 C27.506907,9.08402268 27.431818,9.22882268 27.381759,9.35812268 C27.333785,9.47482268 27.286855,9.59462268 27.238881,9.71232268 C27.226366,9.74992268 27.182564,9.81552268 27.207594,9.84992268 C27.215937,9.86452268 27.21698,9.86242268 27.234709,9.86862268 C27.339,9.78532268 27.358815,9.61652268 27.473534,9.54352268 C27.562181,9.55502268 27.511079,9.72692268 27.490221,9.78112268 C27.474577,9.82592268 27.474577,9.89572268 27.454762,9.95102268 C27.394274,10.1073227 27.235752,10.2771227 27.22428,10.4803227 C27.233667,10.4845227 27.240967,10.4866227 27.247224,10.4907227 C27.483963,10.3198227 27.556966,9.87492268 27.714445,9.61752268 C27.757204,9.54772268 27.826035,9.33832268 27.911553,9.32892268 C27.964741,9.42792268 27.872966,9.54562268 27.842722,9.62592268 C27.769719,9.81552268 27.690458,9.99992268 27.613283,10.1917227 C27.580953,10.2761227 27.492306,10.3355227 27.50065,10.4397227 C27.506907,10.4428227 27.51525,10.4459227 27.523593,10.4501227 C27.555923,10.4595227 27.583039,10.4376227 27.623712,10.4345227 L27.626841,10.4345227 C27.721745,10.5699227 27.528808,10.7231227 27.48292,10.8190227 C27.483963,10.8335227 27.488135,10.8481227 27.490221,10.8638227 C27.528808,10.8731227 27.57261,10.8450227 27.609112,10.8544227 L27.714445,10.9419227 C27.809349,10.9628227 27.96057,10.8513227 28.015844,10.8190227 C28.213995,10.6991227 28.451777,10.3094227 28.56441,10.0916227 C28.645757,9.93852268 28.742747,9.77282268 28.822007,9.62172268 C28.860595,9.53212268 28.900225,9.44252268 28.940898,9.35182268 C29.041017,9.18822268 29.129664,9.01732268 29.215182,8.82662268 L29.310086,8.66722268 C29.36536,8.49422268 29.414376,8.32232268 29.488422,8.15452268 C29.515538,8.10762268 29.543696,8.06072268 29.571854,8.01392268 C29.609399,7.91492268 29.61357,7.80022268 29.653201,7.68462268 C29.701174,7.56792268 29.750191,7.45012268 29.799207,7.33242268 C29.853438,7.18442268 29.854481,7.01252268 29.899326,6.86242268 C29.941042,6.72702268 30.015088,6.57282268 30.065147,6.43312268 C30.124593,6.26542268 30.125636,6.07782268 30.248698,5.97152268 C30.371761,5.86422268 30.679417,5.76732268 30.883826,5.79332268 C31.005845,5.80792268 31.14038,5.84442268 31.236327,5.82982268 L31.514782,5.79752268 L31.683732,5.79752268 C31.731706,5.78192268 31.781765,5.76422268 31.829738,5.74752268 C31.936115,5.73082268 32.042491,5.71522268 32.14991,5.69752268 C32.315731,5.67142268 32.553513,5.64642268 32.652589,5.74332268 C32.758965,5.84752268 32.576457,6.01322268 32.533698,6.06322268 C32.441922,6.17262268 32.180154,6.45402268 32.036233,6.48732268 C31.969487,6.50292268 31.910042,6.46132268 31.829738,6.46022268 C31.821395,6.46752268 31.812009,6.47582268 31.802623,6.48312268 C31.775508,6.59262268 31.857897,6.78322268 31.788022,6.87602268 C31.767164,6.90312268 31.533554,6.95202268 31.487666,6.93952268 C31.442822,6.93022268 31.364604,6.88332268 31.312459,6.85722268 C31.274914,6.81872268 31.23737,6.78222268 31.199825,6.74362268 C31.01836,6.60922268 30.832724,6.49982268 30.55844,6.61552268 C30.501081,6.64052268 30.45415,6.67382268 30.416605,6.72072268 C30.289371,6.88332268 30.263299,7.09272268 30.193424,7.31992268 C30.16318,7.41572268 30.135022,7.53772268 30.096434,7.63872268 C30.064104,7.70232268 30.028646,7.76592268 29.997359,7.83052268 C29.970243,7.90442268 29.963986,8.00242268 29.950428,8.08682268 C29.934784,8.17542268 29.967114,8.25462268 29.973372,8.31602268 C29.9692,8.38062268 29.963986,8.44732268 29.959814,8.51092268 C29.9765,8.54322268 29.993187,8.57552268 30.00883,8.60782268 C30.031774,8.67452268 30.021345,8.81732268 30.00883,8.88192268 C29.987972,9.01002268 30.01926,9.13712268 29.946256,9.21012268 C29.920184,9.22682268 29.894111,9.24142268 29.868039,9.25592268 L29.828408,9.24662268 C29.777306,9.31642268 29.362231,9.25492268 29.255855,9.28302268 C29.157822,9.32682268 29.111934,9.54462268 29.091076,9.66342268 C29.073347,9.76242268 29.103591,9.86762268 29.068132,9.95102268 C28.998258,10.0281227 28.928383,10.1052227 28.856423,10.1844227 C28.838694,10.2240227 28.861638,10.2500227 28.876238,10.2792227 C28.937769,10.4094227 29.075433,10.4376227 29.255855,10.3990227 C29.313214,10.3844227 29.37266,10.3584227 29.45192,10.3667227 C29.563511,10.3782227 29.644857,10.4240227 29.754362,10.4074227 C30.068276,10.3594227 30.365503,10.3209227 30.690889,10.3438227 C30.848367,10.3532227 31.005845,10.3626227 31.161238,10.3709227 C31.225898,10.3594227 31.308287,10.3792227 31.354175,10.3709227 C31.390676,10.3636227 31.432393,10.3313227 31.47828,10.3334227 C31.56797,10.3375227 31.717105,10.3396227 31.83391,10.3167227 C32.032062,10.2771227 32.235428,10.2563227 32.447137,10.2834227 C32.543084,10.3032227 32.639031,10.3209227 32.734978,10.3396227 C32.796509,10.3375227 32.89037,10.3480227 32.945644,10.3532227 C33.004047,10.3511227 33.064535,10.3490227 33.123981,10.3480227 C33.195941,10.3532227 33.266858,10.3573227 33.338819,10.3626227 L33.703835,10.3209227 L33.822725,10.3303227 C33.958303,10.3073227 34.179398,10.2792227 34.311847,10.2834227 C34.421352,10.2854227 34.527728,10.2875227 34.636189,10.2886227 C34.769681,10.2771227 34.90213,10.2636227 35.035621,10.2521227 C35.145126,10.2719227 35.260888,10.3073227 35.345363,10.3209227 C35.455911,10.3375227 35.551858,10.2823227 35.651977,10.2980227 C35.876201,10.3292227 36.097296,10.3532227 36.32882,10.3073227 C36.516543,10.2709227 36.660464,10.3073227 36.81377,10.3032227 C36.858615,10.3011227 36.911803,10.2771227 36.959777,10.2834227 C37.090139,10.3042227 37.245532,10.3375227 37.389452,10.3167227 C37.533373,10.2938227 37.745082,10.3480227 37.814957,10.2427227 C37.808699,10.1489227 37.734653,10.1437227 37.700237,10.1021227 C37.683551,10.0656227 37.666865,10.0312227 37.650178,9.99682268 C37.603248,9.91242268 37.509386,9.84262268 37.585518,9.73112268 C37.614719,9.72382268 37.662693,9.71342268 37.691894,9.73112268 C37.777412,9.78532268 37.839986,10.1031227 37.892132,10.2115227 C37.914032,10.2406227 37.934891,10.2719227 37.956791,10.3032227 C38.003722,10.4094227 38.039181,10.5189227 38.093412,10.6189227 C38.135128,10.6574227 38.176844,10.6960227 38.217517,10.7366227 C38.256105,10.7908227 38.28322,10.8596227 38.336408,10.8961227 C38.384382,10.9273227 38.433398,10.9575227 38.482414,10.9878227 C38.592962,11.0857227 38.647193,11.1555227 38.820315,11.1972227 C38.922519,11.2222227 39.07374,11.0722227 39.118585,11.0232227 C39.302136,10.8252227 39.337595,10.6960227 39.378268,10.3709227 C39.374096,10.3375227 39.369925,10.3042227 39.36471,10.2709227 C39.345938,10.1239227 39.33238,9.81762268 39.401212,9.69572268 C39.443971,9.61962268 39.522188,9.57482268 39.571205,9.50712268 C39.669238,9.37262268 39.786043,9.25592268 39.871561,9.11422268 C39.926835,9.02362268 40.004009,8.98612268 39.999838,8.84432268 C39.929963,8.81412268 39.574333,9.03922268 39.455443,9.02252268 L39.455443,9.02252268 Z" id="Fill-1"></path>
        </g>
    </g>
</svg>