<?xml version="1.0" encoding="UTF-8"?>
<svg width="133px" height="136px" viewBox="0 0 133 136" version="1.1" xmlns="http://www.w3.org/2000/svg" xmlns:xlink="http://www.w3.org/1999/xlink">
    <!-- Generator: Sketch 61.2 (89653) - https://sketch.com -->
    <title>Group 4</title>
    <desc>Created with Sketch.</desc>
    <defs>
        <polygon id="path-1" points="0 0 51.987644 0 51.987644 49.4354559 0 49.4354559"></polygon>
        <polygon id="path-3" points="0 0 21.4481825 0 21.4481825 27.4661683 0 27.4661683"></polygon>
        <polygon id="path-5" points="0 0 12.2766687 0 12.2766687 28.8033722 0 28.8033722"></polygon>
    </defs>
    <g id="Sakari-Gin" stroke="none" stroke-width="1" fill="none" fill-rule="evenodd">
        <g id="Splash-page-DEF" transform="translate(-957.000000, -383.000000)">
            <g id="Group-4" transform="translate(957.000000, 383.000000)">
                <g id="Group-3" transform="translate(81.012356, 0.000000)">
                    <mask id="mask-2" fill="white">
                        <use xlink:href="#path-1"></use>
                    </mask>
                    <g id="Clip-2"></g>
                    <path d="M37.6387607,38.2418436 C37.6314659,38.0449099 37.6168763,37.8139384 37.5974234,37.558654 C37.4126217,35.1808623 36.7609526,30.5225301 36.2916535,27.3302597 C38.7889081,24.7774159 42.5262793,20.8995246 43.7955752,19.2948799 C43.9293133,19.1271216 44.0508933,18.9253253 44.1651786,18.6943538 C45.1305243,19.3848372 46.3511882,20.5664392 47.199817,22.154065 C48.2040683,24.0237191 48.4083229,25.9103923 47.8077173,27.7605962 L45.8600047,33.7512698 C45.2593992,35.6014737 43.9852401,37.0067534 42.0740015,37.9306398 C40.454555,38.7135119 38.7718869,38.9566399 37.5852654,38.9469148 C37.6266027,38.6940616 37.6484871,38.4557962 37.6387607,38.2418436 L37.6387607,38.2418436 Z M18.0668018,29.7420893 L18.0668018,29.7420893 L24.9749811,24.726359 L25.4564381,24.726359 L25.6047658,25.1834396 L22.9664784,33.301483 C22.9664784,33.301483 23.8442865,33.7464072 25.1573512,34.3979902 C22.6795494,35.6233552 19.4357933,37.1963933 17.2838261,38.1445924 C16.680789,38.4096019 16.1628579,38.6259858 15.7738017,38.7694313 C15.625474,38.8253508 15.4163563,38.8715451 15.1537434,38.9031517 C15.1026798,38.6454361 15.0807953,38.4290521 15.0880902,38.2734502 C15.168333,36.3746207 15.8370234,31.4999046 16.345228,27.9964304 C17.3737954,29.044312 18.0668018,29.7420893 18.0668018,29.7420893 L18.0668018,29.7420893 Z M18.0668018,18.227548 L18.0668018,18.227548 L19.4260669,19.2146476 L24.9749811,23.2457096 L25.1233087,23.7027902 L24.7342525,23.9848187 L16.1969003,23.9848187 C16.1969003,23.9848187 16.0461411,24.9573306 15.8297285,26.4088047 C13.9014687,24.4297429 11.399351,21.8307047 9.83339973,20.077752 C9.39571149,19.5866335 9.0309713,19.1611595 8.77322156,18.835368 C8.6735259,18.713804 8.56410384,18.5265954 8.45468179,18.28833 C8.68325231,18.1594722 8.88264362,18.0719461 9.0334029,18.0306144 C10.8643987,17.5176143 15.7081485,16.6496474 19.1974964,16.0515526 C18.516648,17.3522873 18.0668018,18.227548 18.0668018,18.227548 Z M27.4017192,22.0470886 L28.0558199,20.0364202 L29.5293703,15.5020833 C30.0545962,15.5896094 30.8813406,15.7257611 31.873434,15.8959507 C32.3403014,16.7857991 32.7244944,17.5273394 32.9700862,18.001439 L27.4017192,22.0470886 Z M25.993822,26.3820606 L27.2995919,30.4033974 L28.1190416,32.9246346 C27.6424477,33.1653313 26.8959461,33.5397484 25.993822,33.9846726 C25.0916979,33.5397484 24.3427647,33.1653313 23.8661709,32.9270659 L25.993822,26.3820606 Z M18.1470446,28.7695774 C17.772578,28.3902977 17.1841305,27.7946342 16.4813977,27.0749753 C16.6272938,26.0805819 16.7513054,25.2539467 16.8315483,24.726359 L23.71298,24.726359 L18.1470446,28.7695774 Z M24.5834933,22.0470886 L19.0175579,18.001439 C19.2631496,17.5273394 19.6473426,16.7857991 20.1142101,15.8959507 C21.1063034,15.7257611 21.9306162,15.5896094 22.4582737,15.5020833 L24.5834933,22.0470886 Z M35.5062463,27.0749753 C34.8010819,27.7946342 34.215066,28.3902977 33.8405994,28.7695774 L28.2722324,24.726359 L35.1536641,24.726359 C35.233907,25.2539467 35.3579186,26.0805819 35.5062463,27.0749753 L35.5062463,27.0749753 Z M25.993822,5.54599242 C26.1859185,5.72590713 26.329383,5.8863716 26.4169206,6.01766071 C27.469804,7.60042388 29.7919833,11.9378271 31.4406089,15.0693155 C29.9938062,14.8261875 29.0211656,14.6681544 29.0211656,14.6681544 L29.0211656,14.6681544 L29.0211656,14.6681544 L26.3828782,22.7861977 L25.993822,23.0706575 L25.6047658,22.7861977 L22.9664784,14.6681544 C22.9664784,14.6681544 21.9938379,14.8261875 20.5470351,15.0693155 C21.9063002,12.4872963 23.725138,9.08350458 24.9093278,7.08256128 C25.1622144,6.65708731 25.3859217,6.29482661 25.5707234,6.01766071 C25.6558294,5.8863716 25.7992939,5.72590713 25.993822,5.54599242 L25.993822,5.54599242 Z M36.2138423,38.7694313 C34.4314785,38.1081232 30.001101,35.9661657 26.8278613,34.3979902 C28.1433576,33.7464072 29.0211656,33.301483 29.0211656,33.301483 L26.3828782,25.1834396 L26.5312059,24.726359 L27.012663,24.726359 L33.9184107,29.7420893 C33.9184107,29.7420893 34.6138486,29.044312 35.6399844,27.9964304 C36.1044202,31.1935634 36.7025942,35.5309666 36.8655115,37.7093933 C36.8801011,37.9184834 36.8922591,38.1056919 36.8995539,38.2734502 C36.9044171,38.4290521 36.8849643,38.6454361 36.8339006,38.9031517 C36.6563937,38.8812702 36.5032029,38.8545261 36.3767596,38.8204882 C36.3208328,38.8059005 36.2649059,38.7888816 36.2138423,38.7694313 L36.2138423,38.7694313 Z M43.2144225,18.835368 C42.0350958,20.3257425 38.6259908,23.8754111 36.1554839,26.4088047 C35.941503,24.9573306 35.7907437,23.9848187 35.7907437,23.9848187 L27.2533915,23.9848187 L26.8643353,23.7027902 L27.012663,23.2457096 L33.9184107,18.227548 C33.9184107,18.227548 33.4685644,17.3522873 32.7901477,16.0515526 C35.9731138,16.5985905 40.2843429,17.3693062 42.4071308,17.8871688 C42.6089537,17.9382257 42.7937554,17.98442 42.9542411,18.0306144 C43.1050004,18.0719461 43.3019601,18.1594722 43.5329622,18.28833 C43.4575826,18.4487945 43.3846346,18.5873774 43.3141181,18.696785 C43.2800757,18.7454106 43.2484649,18.7940362 43.2144225,18.835368 L43.2144225,18.835368 Z M36.325696,4.41058474 L38.8740141,6.26078869 L41.4223323,8.11099265 C42.9955783,9.25369417 43.9390397,10.8996706 44.2284002,13.0027277 C44.4715603,14.7848558 44.1821998,16.4600076 43.8077332,17.5881214 C43.5791627,17.4665574 43.3578869,17.3741688 43.1536324,17.3182494 C42.9129039,17.2501735 42.625975,17.1772351 42.2977088,17.1018655 C39.9244659,16.5426711 35.4527511,15.7525052 32.3573226,15.2249174 C30.7014021,12.0642537 28.165242,7.31110158 27.0345474,5.60677442 C26.9153989,5.42929099 26.7597764,5.24937628 26.5749747,5.06946158 C27.530594,4.36439043 29.0333236,3.5717932 30.805961,3.25329554 C32.8947065,2.87644717 34.7524499,3.26545194 36.325696,4.41058474 L36.325696,4.41058474 Z M7.75924381,13.0027277 C8.04860437,10.8996706 8.99206567,9.25369417 10.5653117,8.11099265 L13.1136299,6.26078869 L15.6619481,4.41058474 C17.2351941,3.26545194 19.0929375,2.87644717 21.181683,3.25329554 C22.9543204,3.5717932 24.45705,4.36439043 25.4102377,5.06946158 C25.2278676,5.24937628 25.0722451,5.42929099 24.9530967,5.60677442 C24.8436746,5.77210145 24.7196629,5.96660383 24.5859249,6.18541902 C24.5202716,6.29482661 24.4497552,6.40909676 24.3768071,6.53066076 C24.3403331,6.58901147 24.3038591,6.65222475 24.2673851,6.71543802 C22.9859312,8.87684579 21.0041761,12.5991352 19.6278898,15.2249174 C16.1069311,15.8254436 10.8036086,16.7663488 8.83401159,17.3182494 C8.62732548,17.3741688 8.40848136,17.4665574 8.17991084,17.5881214 C7.80544424,16.4600076 7.51608368,14.7848558 7.75924381,13.0027277 L7.75924381,13.0027277 Z M6.12763934,33.7512698 L4.17992669,27.7605962 C3.57932117,25.9103923 3.78357568,24.0237191 4.78539541,22.154065 C5.63645587,20.5664392 6.85468813,19.3848372 7.82003384,18.6943538 C7.93675071,18.9253253 8.05833077,19.1271216 8.19206884,19.2948799 C8.25285888,19.3726808 8.32094371,19.4553443 8.39389175,19.5453017 C9.82124172,21.2715104 13.320316,24.9014112 15.6935589,27.3302597 C15.1780594,30.8629093 14.4339894,36.1995685 14.3488834,38.2418436 C14.3391569,38.4557962 14.3586098,38.6940616 14.4023786,38.9469148 C13.2157571,38.9566399 11.533089,38.7135119 9.91364257,37.9306398 C8.00240394,37.0067534 6.72824486,35.6014737 6.12763934,33.7512698 L6.12763934,33.7512698 Z M29.1427457,45.8955125 L22.8448983,45.8955125 C20.8996173,45.8955125 19.1683171,45.117503 17.6971984,43.5857967 C16.4522185,42.2874932 15.7032853,40.7630808 15.3458399,39.6301044 C15.5987264,39.5936352 15.8321602,39.540147 16.0315515,39.4647774 C16.1239523,39.4307394 16.223648,39.391839 16.3306384,39.3505072 C18.4145207,38.5263033 22.9470256,36.3211325 25.993822,34.813739 C29.1938093,36.3965022 34.0375591,38.7524124 35.9560926,39.4647774 C36.1554839,39.540147 36.386486,39.5936352 36.6418041,39.6301044 C36.2843587,40.7630808 35.5354255,42.2874932 34.2880141,43.5857967 C32.8193269,45.117503 31.0880267,45.8955125 29.1427457,45.8955125 L29.1427457,45.8955125 Z M44.4618339,17.9868513 C45.7335614,14.3836946 45.6460238,6.80539538 45.6314342,6.79323898 L45.6314342,6.79323898 L36.2770639,-0.00221944406 L36.2770639,-0.00221944406 C36.2624743,-0.0119132712 29.0284604,2.24674569 25.993822,4.57104921 C22.9591836,2.24674569 15.7251697,-0.0119132712 15.7105801,-0.00221944406 L15.7105801,-0.00221944406 L6.35620986,6.79323898 L6.35620986,6.79323898 C6.34162025,6.80539538 6.2540826,14.3836946 7.52581009,17.9868513 C4.379318,20.1531217 -0.00485916021,26.3358663 1.03490909e-15,26.3528852 L1.03490909e-15,26.3528852 L3.57202636,37.3471326 C3.57932117,37.3641516 10.7598398,39.7881376 14.5798855,39.6933177 C15.6692429,43.3548251 20.1944529,49.4354559 20.2114741,49.4354559 L20.2114741,49.4354559 L31.7737383,49.4354559 L31.7737383,49.4354559 C31.7931911,49.4354559 36.3184012,43.3548251 37.4077585,39.6933177 C41.2278042,39.7881376 48.4083229,37.3641516 48.4131861,37.3471326 L51.987644,26.3528852 L51.987644,26.3528852 C51.9925032,26.3358663 47.608326,20.1531217 44.4618339,17.9868513 L44.4618339,17.9868513 Z" id="Fill-1" fill="#1D1D1B" mask="url(#mask-2)"></path>
                </g>
                <g id="Group-2" transform="translate(0.000000, 71.262210)">
                    <g id="Group-24" transform="translate(0.000000, 1.889104)">
                        <mask id="mask-4" fill="white">
                            <use xlink:href="#path-3"></use>
                        </mask>
                        <g id="Clip-23"></g>
                        <path d="M21.4481825,19.2411486 C21.4481825,24.9084619 16.6068643,27.4661683 10.8609904,27.4661683 C8.34428304,27.4661683 5.78623847,26.9920687 3.58077608,25.9709312 L1.14187997,27.0723009 L0.315135529,27.0723009 L0.315135529,17.3909446 L1.14187997,17.3909446 L7.83121517,25.5770638 C8.77710808,26.4814999 9.91752909,26.7562345 10.7831792,26.7562345 C13.6549003,26.7562345 15.4664433,25.0251633 15.4664433,22.4285564 C15.4664433,20.1844852 14.1679682,18.8083808 11.2549098,17.8237124 L6.65188853,16.2895749 C2.04643566,14.7165368 -0.000972640522,11.8427641 -0.000972640522,8.10588696 C-0.000972640522,2.63550734 4.48533177,0 9.91752909,0 C12.2008027,0 14.5618876,0.471668287 16.6871071,1.29830343 L19.1260032,0.393867333 L19.9138421,0.393867333 L19.9138421,10.0727923 L19.1260032,10.0727923 L12.278614,1.65327029 C11.8846945,1.10136976 10.9801389,0.707502431 10.1533944,0.707502431 C7.24033605,0.707502431 5.94186095,3.18740786 5.94186095,5.46794834 C5.94186095,7.78982058 7.24033605,8.89119034 10.5084082,10.0727923 L14.9144698,11.5680294 C19.5199227,13.1823992 21.4481825,15.6598734 21.4481825,19.2411486" id="Fill-22" fill="#1D1D1B" mask="url(#mask-4)"></path>
                    </g>
                    <path d="M36.7573012,22.2712526 L36.7573012,18.5319443 L34.9068526,18.7288779 C31.9548886,19.1616457 31.5634008,21.2476838 31.5634008,22.8620536 C31.5634008,25.0647932 32.5068621,26.2050634 34.0022969,26.2050634 C35.4977317,26.2050634 36.7573012,25.0647932 36.7573012,22.2712526 L36.7573012,22.2712526 Z M46.6733713,26.2050634 C45.6520987,28.6071679 43.7627445,29.3535708 41.6764306,29.3535708 C39.9840361,29.3535708 37.3870859,28.5682674 36.8351124,25.1036936 L36.6794899,25.1036936 C36.2053277,27.1119308 34.6320816,29.3535708 30.7366563,29.3535708 C26.9968535,29.3535708 24.4777146,26.9927981 24.4777146,23.7275893 C24.4777146,19.7524467 27.548827,17.9046741 32.1129427,17.9046741 L36.7573012,17.9046741 L36.7573012,12.1182281 C36.7573012,10.6643227 35.8114082,9.40491977 34.0412025,9.28578706 L26.6831769,16.1711715 L25.8175269,16.1711715 L25.8175269,10.0346212 C29.4770868,8.89191973 31.9962258,8.4980524 33.7664315,8.4980524 C39.825982,8.4980524 43.1329598,10.54519 43.1329598,15.8964369 L43.1329598,24.6320254 C43.1329598,25.9303288 43.8016501,26.8347649 44.7864487,26.8347649 C45.3359906,26.8347649 45.8879641,26.5600303 46.3596947,25.9692293 L46.6733713,26.2050634 Z" id="Fill-25" fill="#1D1D1B"></path>
                    <path d="M74.8916181,28.0163669 L74.8916181,28.8041016 L62.1403009,28.8041016 L62.1403009,28.0163669 L63.2029106,25.8525278 L58.0090103,18.9671434 L66.5876997,11.8823939 L66.5876997,9.01105244 L73.3961833,9.01105244 L73.3961833,9.79878711 L68.0831345,11.8434934 L63.5579244,15.5439013 L70.7992331,24.9869922 L74.8916181,28.0163669 Z M56.9853061,25.9303288 L59.8181216,28.0163669 L59.8181216,28.8041016 L47.5409666,28.8041016 L47.5409666,28.0163669 L50.4126878,25.9303288 L50.4126878,5.27174406 L47.5409666,3.22703772 L47.5409666,2.43930306 L56.9853061,2.43930306 L56.9853061,25.9303288 Z" id="Fill-27" fill="#1D1D1B"></path>
                    <path d="M88.7055452,22.2712526 L88.7055452,18.5319443 L86.8550966,18.7288779 C83.9031326,19.1616457 83.5116448,21.2476838 83.5116448,22.8620536 C83.5116448,25.0647932 84.4551061,26.2050634 85.9505409,26.2050634 C87.4459757,26.2050634 88.7055452,25.0647932 88.7055452,22.2712526 L88.7055452,22.2712526 Z M98.6216153,26.2050634 C97.6003427,28.6071679 95.7109885,29.3535708 93.6246746,29.3535708 C91.9322801,29.3535708 89.3353299,28.5682674 88.7833564,25.1036936 L88.6277339,25.1036936 C88.1535717,27.1119308 86.5803256,29.3535708 82.6849003,29.3535708 C78.9450975,29.3535708 76.4259586,26.9927981 76.4259586,23.7275893 C76.4259586,19.7524467 79.497071,17.9046741 84.0611867,17.9046741 L88.7055452,17.9046741 L88.7055452,12.1182281 C88.7055452,10.6643227 87.7596522,9.40491977 85.9894465,9.28578706 L78.6314209,16.1711715 L77.7657709,16.1711715 L77.7657709,10.0346212 C81.4253308,8.89191973 83.9444698,8.4980524 85.7146755,8.4980524 C91.774226,8.4980524 95.0812038,10.54519 95.0812038,15.8964369 L95.0812038,24.6320254 C95.0812038,25.9303288 95.7498941,26.8347649 96.7346927,26.8347649 C97.2842346,26.8347649 97.8362081,26.5600303 98.3079387,25.9692293 L98.6216153,26.2050634 Z" id="Fill-29" fill="#1D1D1B"></path>
                    <path d="M118.497038,9.01080931 L118.497038,17.0777958 L117.631388,17.0777958 L112.751164,11.7265489 C110.900716,11.7265489 109.366375,14.7559236 109.366375,18.4149997 L109.366375,25.9714174 L113.735963,28.0161238 L113.735963,28.8038584 L99.9220357,28.8038584 L99.9220357,28.0161238 L102.793757,25.9300857 L102.793757,11.8821508 L99.9220357,9.79854398 L99.9220357,9.01080931 L109.366375,9.01080931 L109.366375,14.5978904 C109.99616,11.2548806 111.963325,8.65584246 115.742034,8.65584246 C116.843549,8.65584246 117.828348,8.81387565 118.497038,9.01080931" id="Fill-31" fill="#1D1D1B"></path>
                    <g id="Group-35" transform="translate(120.583595, 0.000000)">
                        <mask id="mask-6" fill="white">
                            <use xlink:href="#path-5"></use>
                        </mask>
                        <g id="Clip-34"></g>
                        <path d="M2.63585582,3.423242 C2.63585582,1.61436981 4.092385,0 6.1373617,0 C8.18477,0 9.64129918,1.61436981 9.64129918,3.423242 C9.64129918,5.35124691 8.18477,6.80758353 6.1373617,6.80758353 C4.092385,6.80758353 2.63585582,5.35124691 2.63585582,3.423242 L2.63585582,3.423242 Z M12.277155,28.0156375 L12.277155,28.8033722 L0,28.8033722 L0,28.0156375 L2.87172114,25.9320307 L2.87172114,11.8840958 L0,9.79805772 L0,9.01032306 L9.44433948,9.01032306 L9.44433948,25.9320307 L12.277155,28.0156375 Z" id="Fill-33" fill="#1D1D1B" mask="url(#mask-6)"></path>
                    </g>
                </g>
                <path d="M102.399594,115.579681 L93.7212092,115.579681 L93.7212092,116.374709 L96.7485528,118.127662 L96.7485528,132.936587 L93.7212092,134.687109 L93.7212092,135.484569 L105.424506,135.484569 L105.424506,134.687109 L102.399594,132.936587 L102.399594,115.579681 Z M129.835352,132.936587 L129.835352,122.387264 C129.835352,117.410434 127.328371,115.061818 123.386745,115.061818 C119.325971,115.061818 117.174004,117.568468 116.337533,121.232406 L116.337533,115.579681 L107.659148,115.579681 L107.659148,116.374709 L110.686491,118.127662 L110.686491,132.936587 L107.659148,134.687109 L107.659148,135.484569 L118.849377,135.484569 L118.849377,134.687109 L116.337533,132.936587 L116.337533,123.821719 C116.337533,120.714544 117.932663,118.08633 120.758184,118.08633 C123.026868,118.08633 124.181879,119.601018 124.181879,122.506397 L124.181879,132.936587 L121.674898,134.687109 L121.674898,135.484569 L132.860264,135.484569 L132.860264,134.687109 L129.835352,132.936587 Z M99.5740735,112.992799 C101.405069,112.992799 102.679228,111.718808 102.679228,110.007187 C102.679228,108.375799 101.405069,106.982675 99.5740735,106.982675 C97.7430777,106.982675 96.4689186,108.375799 96.4689186,110.007187 C96.4689186,111.718808 97.7430777,112.992799 99.5740735,112.992799 L99.5740735,112.992799 Z M80.2185271,122.944027 L84.3182069,124.655648 L84.3182069,132.776123 C83.4039248,133.930981 81.9303744,134.767341 79.8586501,134.767341 C74.0860286,134.767341 69.1912152,128.436288 69.1912152,120.994141 C69.1912152,113.707595 73.8088261,109.411524 79.2240022,109.411524 C81.572929,109.411524 82.7255081,110.444818 83.8027074,111.718808 L88.1795898,119.601018 L89.0160606,119.601018 L89.0160606,108.971462 L88.220927,108.971462 L85.5534604,110.405917 C83.323682,109.090595 80.7364582,108.295566 78.0300859,108.295566 C69.509755,108.295566 62.7815141,114.108756 62.7815141,122.467496 C62.7815141,130.228142 69.2301208,136 77.2325207,136 C83.2847764,136 87.9437245,133.85318 89.6555718,132.340924 L89.6555718,124.655648 L92.4397553,122.944027 L92.4397553,122.148999 L80.2185271,122.148999 L80.2185271,122.944027 Z" id="Fill-36" fill="#9C9C9C"></path>
            </g>
        </g>
    </g>
</svg>